Coordinates
version=1
nRows=10
nColumns=40
inDegrees=yes

Units are S.I. units (second, meters, Newtons, ...)
Angles are in degrees.

endheader
time	pelvis_tilt	pelvis_list	pelvis_rotation	pelvis_tx	pelvis_ty	pelvis_tz	hip_flexion_r	hip_adduction_r	hip_rotation_r	knee_angle_r	knee_angle_r_beta	ankle_angle_r	subtalar_angle_r	mtp_angle_r	hip_flexion_l	hip_adduction_l	hip_rotation_l	knee_angle_l	knee_angle_l_beta	ankle_angle_l	subtalar_angle_l	mtp_angle_l	lumbar_extension	lumbar_bending	lumbar_rotation	arm_flex_r	arm_add_r	arm_rot_r	elbow_flex_r	pro_sup_r	wrist_flex_r	wrist_dev_r	arm_flex_l	arm_add_l	arm_rot_l	elbow_flex_l	pro_sup_l	wrist_flex_l	wrist_dev_l
     52.88500000	     -5.11416343	     -3.63884740	     -4.55613410	      0.76712479	      0.92969647	      0.44548908	     26.89401082	     -1.30522725	    -13.01258205	     16.38543038	     16.38543038	      4.91768730	      2.67179201	      6.04895024	      3.38639167	     -3.33984958	    -13.77294870	     11.41415226	     11.41415226	     14.30913944	     -3.90205734	     -7.46516359	     -9.60835308	      4.09346075	      0.96007902	    -15.68150081	    -13.33494326	     -7.68778944	     24.57853604	     46.62096612	      0.00000000	      0.00000000	     25.68536412	    -17.86504659	    -10.70805341	     60.59363642	     47.07690826	      0.00000000	      0.00000000
     52.89821429	     -5.21359455	     -3.40701203	     -4.55359792	      0.76735832	      0.92832841	      0.44650003	     26.45902103	     -1.22912744	    -13.59095335	     14.81705610	     14.81705610	      4.65182290	      3.40288516	      6.51317992	      2.90575063	     -3.09524336	    -13.77800362	     11.20599345	     11.20599345	     14.64721277	     -3.75866249	     -7.62529117	     -9.46539188	      3.95910606	      1.05634405	    -15.44567457	    -13.29019578	     -7.74379281	     24.63158856	     46.62524131	      0.00000000	      0.00000000	     25.55196336	    -17.65924858	    -10.71799414	     60.58943116	     47.07973468	      0.00000000	      0.00000000
     52.91142857	     -5.23339343	     -3.29197488	     -4.47918546	      0.76787601	      0.92710511	      0.44753223	     25.95630150	     -1.11646033	    -14.26909880	     13.74449184	     13.74449184	      4.33912696	      4.04820034	      6.76276504	      2.31378644	     -2.97661733	    -13.75758694	     10.98885862	     10.98885862	     15.00936960	     -3.58068348	     -7.73558663	     -9.36754635	      3.96942829	      1.10884656	    -15.08362393	    -13.30032939	     -7.81246193	     24.71807683	     46.63033777	      0.00000000	      0.00000000	     25.25653663	    -17.36430992	    -10.79036610	     60.48923276	     47.08527762	      0.00000000	      0.00000000
     52.92464286	     -5.33326760	     -3.13691663	     -4.39554908	      0.76840248	      0.92572850	      0.44864449	     25.80739882	     -1.10532700	    -14.59963759	     13.50465356	     13.50465356	      4.06544357	      4.10813171	      6.79441121	      1.91146475	     -2.85049508	    -13.65887955	     10.95807594	     10.95807594	     15.39690901	     -3.52067608	     -7.85167448	     -9.18748726	      3.92946842	      1.20892724	    -14.62374231	    -13.26093162	     -7.81993359	     24.87997857	     46.62804523	      0.00000000	      0.00000000	     24.86752255	    -16.96436495	    -10.74407027	     60.34288474	     47.07723441	      0.00000000	      0.00000000
     52.93785714	     -5.42305591	     -3.07740084	     -4.28386182	      0.76912022	      0.92451153	      0.44992350	     25.57434576	     -1.02212938	    -14.88432322	     13.44712604	     13.44712604	      3.71812179	      4.12585396	      6.72385339	      1.48214523	     -2.84533706	    -13.53351154	     10.93194166	     10.93194166	     15.76019658	     -3.44966386	     -7.90804714	     -9.01359230	      4.03139984	      1.33200815	    -14.11790692	    -13.23293591	     -7.82420348	     25.06694270	     46.62483497	      0.00000000	      0.00000000	     24.39777981	    -16.60550972	    -10.72406455	     60.12465097	     47.06933988	      0.00000000	      0.00000000
     52.95107143	     -5.50814444	     -3.05640959	     -4.13841522	      0.76996858	      0.92342668	      0.45134139	     25.33052023	     -0.93279897	    -15.07090956	     13.60641751	     13.60641751	      3.39102148	      4.05104220	      6.61071215	      1.06635461	     -2.90023606	    -13.37992848	     10.94898428	     10.94898428	     16.11796323	     -3.39837002	     -7.95548495	     -8.85851180	      4.15108532	      1.50399465	    -13.57371608	    -13.20264596	     -7.82115588	     25.27523868	     46.62048520	      0.00000000	      0.00000000	     23.87771683	    -16.24954039	    -10.68983542	     59.87468551	     47.05905321	      0.00000000	      0.00000000
     52.96428571	     -5.55154591	     -3.11065656	     -3.97964684	      0.77099180	      0.92253950	      0.45290141	     25.05258241	     -0.80377974	    -15.19757473	     13.95398447	     13.95398447	      3.12499759	      3.88529367	      6.39940689	      0.61272569	     -3.05893557	    -13.19002171	     11.00566979	     11.00566979	     16.48942586	     -3.35101948	     -7.97370157	     -8.72946862	      4.31599294	      1.70014209	    -12.87840666	    -13.16785834	     -7.81601228	     25.54909235	     46.61450828	      0.00000000	      0.00000000	     23.17962836	    -15.78235728	    -10.62894566	     59.52242294	     47.04353340	      0.00000000	      0.00000000
     52.97750000	     -5.43478223	     -3.18469793	     -3.75991937	      0.77236441	      0.92176724	      0.45464710	     24.49381543	     -0.52599784	    -14.52230409	     14.01023370	     14.01023370	      0.43656909	      1.89781660	     -1.37263249	      0.35556904	     -3.43990955	    -13.65905392	     12.02453436	     12.02453436	     18.61594868	     -1.77984174	     -4.46354234	     -8.63206872	      4.62457841	      0.89028706	    -11.55421172	    -13.29035128	     -7.79111776	     25.88110299	     46.60182693	      0.00000000	      0.00000000	     22.45589017	    -15.10879310	    -13.38564301	     57.64456774	     47.23287396	      0.00000000	      0.00000000
     52.99071429	     -5.38242437	     -3.31842439	     -3.60762050	      0.77364414	      0.92136944	      0.45653904	     24.20727693	     -0.35690894	    -14.45303809	     14.71714467	     14.71714467	      0.52562972	      1.59332808	     -1.64053969	     -0.13032871	     -3.73410620	    -13.51281456	     12.24213939	     12.24213939	     18.81216496	     -1.80692395	     -4.44663276	     -8.59385264	      4.88597476	      1.11169160	    -10.71948955	    -13.23931224	     -7.77847114	     26.22668080	     46.59302257	      0.00000000	      0.00000000	     21.55406520	    -14.51653522	    -13.19371578	     57.22783237	     47.20290428	      0.00000000	      0.00000000
     53.00392857	     -5.37304931	     -3.36131236	     -3.40164227	      0.77480336	      0.92086343	      0.45860192	     24.28210418	     -0.27662171	    -13.83784952	     15.97882930	     15.97882930	      0.72937107	      0.15228560	     -2.39237329	     -0.28007314	     -4.03531074	    -13.39417241	     13.01002557	     13.01002557	     19.30574145	     -1.77501712	     -4.05495067	     -8.50822273	      5.07383295	      0.72434022	     -9.50498029	    -13.26351651	     -7.81699630	     26.90886309	     46.57498040	      0.00000000	      0.00000000	     20.51328797	    -14.58954229	    -13.23644607	     56.11353739	     47.18095956	      0.00000000	      0.00000000
